<svg xmlns="http://www.w3.org/2000/svg" width="307" height="476" fill="none"><path fill="#e4e4e4" d="M96.358 383a91 91 0 0 1-.359-6.302V370H201v-38H95.998c-.003-117.705.001-291.302.001-291.302-8.504-56-88.005-52.5-95.999 0v270c1.777 63.529 41.099 108.374 85 134.327C115.04 462.785 148.232 472 172 472h135v-38H118.472c-3.378-3.991-6.561-8.32-9.411-13H253v-38z"/><g filter="url(#a)"><mask id="b" width="307" height="472" x="0" y="0" maskUnits="userSpaceOnUse" style="mask-type:alpha"><path fill="#e4e4e4" d="M96.358 383a91 91 0 0 1-.359-6.302V370H201v-38H95.998c-.003-117.705.001-291.302.001-291.302-8.504-56-88.005-52.5-95.999 0v270c1.777 63.529 41.099 108.374 85 134.327C115.04 462.785 148.232 472 172 472h135v-38H118.472c-3.378-3.991-6.561-8.32-9.411-13H253v-38z"/></mask><g mask="url(#b)"><path fill="#000" d="M133.999 94.603s-.005 196.396 0 293.938C135.491 447.153 170 472 170 472c-58.502 0-129.006-47.592-132-141.197v-236.2c7.994-45.927 87.495-48.99 95.999 0" opacity=".2"/></g></g><path fill="url(#c)" d="M96 40.698s-.006 224.5 0 336c1.491 67 74 95.302 74 95.302-58.502 0-167.006-54.302-170-161.302v-270c7.994-52.5 87.495-56 96 0"/><defs><linearGradient id="c" x1="85.497" x2="85.497" y1="0" y2="471.698" gradientUnits="userSpaceOnUse"><stop stop-color="#fff"/><stop offset=".612" stop-color="#fff"/><stop offset=".721" stop-color="#dedede"/><stop offset="1" stop-color="#a9a9a9"/></linearGradient><filter id="a" width="140" height="421" x="34" y="55" color-interpolation-filters="sRGB" filterUnits="userSpaceOnUse"><feFlood flood-opacity="0" result="BackgroundImageFix"/><feBlend in="SourceGraphic" in2="BackgroundImageFix" result="shape"/><feGaussianBlur result="effect1_foregroundBlur_21_17" stdDeviation="2"/></filter></defs></svg>